<svg width="790" height="177" viewBox="0 0 790 177" fill="none" xmlns="http://www.w3.org/2000/svg">
<path d="M75.5884 176.914C61.5263 176.914 48.769 174.087 37.3164 168.433C26.0088 162.635 17.0206 154.081 10.352 142.774C3.68342 131.466 0.349121 117.622 0.349121 101.24C0.349121 88.7726 2.3787 77.8274 6.43785 68.4044C10.497 58.9813 16.0058 51.0805 22.9644 44.7018C30.0679 38.3232 38.1862 33.5392 47.3193 30.3498C56.5974 27.1605 66.3828 25.5658 76.6757 25.5658C84.9389 25.5658 92.5498 26.5081 99.5084 28.3927C106.467 30.2773 112.991 32.8868 119.079 36.2211L119.949 62.968H117.775L106.902 45.5717C105.452 42.8172 103.857 40.3527 102.118 38.1782C100.378 35.8587 98.2037 34.119 95.5942 32.9593C93.4197 31.9445 91.2451 31.2196 89.0706 30.7847C87.041 30.2049 84.4316 29.9149 81.2422 29.9149C72.834 29.9149 65.1506 32.162 58.192 36.656C51.3785 41.1501 45.8696 48.616 41.6655 59.0538C37.6063 69.3467 35.5768 83.4812 35.5768 101.457C35.5768 119.289 37.5339 133.423 41.448 143.861C45.3622 154.154 50.6536 161.547 57.3222 166.041C64.1358 170.391 71.7467 172.565 80.1549 172.565C84.794 172.565 88.4907 172.275 91.2451 171.695C93.9995 170.97 96.754 169.956 99.5084 168.651C102.263 167.491 104.365 165.824 105.815 163.649C107.264 161.33 108.569 158.865 109.729 156.256L119.297 134.945H121.471L120.819 166.041C114.73 169.231 107.917 171.84 100.378 173.87C92.8398 175.899 84.5765 176.914 75.5884 176.914Z" fill="#F2F2F2"/>
<path d="M156.599 176.262C148.19 176.262 141.087 173.87 135.288 169.086C129.634 164.302 126.807 157.416 126.807 148.428C126.807 141.614 130.287 135.38 137.245 129.727C144.204 123.928 155.149 119.579 170.081 116.679C172.4 116.244 175.01 115.809 177.909 115.375C180.809 114.795 183.853 114.215 187.042 113.635V96.456C187.042 86.5981 185.81 79.712 183.346 75.7978C181.026 71.7387 177.329 69.7091 172.255 69.7091C168.776 69.7091 166.022 70.8689 163.992 73.1884C161.963 75.3629 160.658 79.2046 160.078 84.7135L159.643 87.1055C159.353 93.3392 157.831 97.9057 155.077 100.805C152.322 103.705 148.915 105.154 144.856 105.154C141.087 105.154 137.97 103.994 135.506 101.675C133.041 99.3554 131.809 96.2386 131.809 92.3244C131.809 86.3806 133.838 81.3792 137.898 77.32C142.102 73.2609 147.611 70.2165 154.424 68.1869C161.238 66.1573 168.631 65.1426 176.605 65.1426C189.507 65.1426 199.437 68.3319 206.396 74.7106C213.499 80.9443 217.051 91.1646 217.051 105.372V153.429C217.051 159.953 220.095 163.215 226.184 163.215H230.968L232.925 164.954C230.171 168.433 227.126 171.115 223.792 173C220.603 174.885 216.036 175.827 210.093 175.827C203.714 175.827 198.64 174.377 194.871 171.478C191.246 168.433 188.854 164.447 187.695 159.518C183.346 164.157 178.852 168.144 174.213 171.478C169.718 174.667 163.847 176.262 156.599 176.262ZM169.863 162.997C172.763 162.997 175.445 162.345 177.909 161.04C180.519 159.59 183.563 157.416 187.042 154.516V117.984C185.593 118.274 184.143 118.564 182.693 118.854C181.244 119.144 179.576 119.434 177.692 119.724C171.023 121.463 165.659 124.435 161.6 128.639C157.686 132.698 155.729 138.207 155.729 145.166C155.729 151.11 157.106 155.604 159.861 158.648C162.615 161.547 165.949 162.997 169.863 162.997Z" fill="#F2F2F2"/>
<path d="M231.311 173V170.825L234.138 170.173C236.893 169.448 239.067 168.216 240.662 166.476C242.257 164.592 243.054 162.2 243.054 159.3C243.054 153.937 243.054 148.645 243.054 143.426C243.199 138.062 243.271 132.698 243.271 127.335V72.7535H231.094V70.3615L235.878 69.4917C238.777 69.2017 240.879 68.1869 242.184 66.4473C243.489 64.7076 244.431 62.3156 245.011 59.2713C246.461 53.6175 248.563 48.6885 251.317 44.4844C254.217 40.1353 257.478 36.1486 261.103 32.5244C266.611 27.3055 272.41 23.6812 278.499 21.6516C284.733 19.4771 290.821 18.3898 296.765 18.3898C302.564 18.3898 307.855 19.6221 312.639 22.0866C317.423 24.4061 319.815 28.3203 319.815 33.8291C319.815 37.7433 318.656 40.8601 316.336 43.1797C314.017 45.3542 310.755 46.4415 306.551 46.4415C303.071 46.4415 299.882 45.4992 296.983 43.6146C294.083 41.73 291.256 38.3956 288.502 33.6116L285.458 29.9149C283.863 27.8853 282.268 26.943 280.674 27.088C279.079 27.088 277.919 28.2478 277.194 30.5673C276.179 35.6412 275.382 41.585 274.802 48.3986C274.367 55.2121 274.15 61.8807 274.15 68.4044H298.505V72.7535H274.15V158.865C274.15 164.374 277.049 167.926 282.848 169.521L288.284 170.825V173H231.311Z" fill="#F2F2F2"/>
<path d="M350.923 65.1426C360.346 65.1426 368.392 67.0996 375.061 71.0138C381.729 74.783 386.803 80.002 390.283 86.6706C393.907 93.1942 395.719 100.66 395.719 109.068C395.719 110.663 395.646 112.33 395.501 114.07C395.356 115.664 395.066 117.114 394.632 118.419H329.83C329.975 134.076 332.73 145.383 338.093 152.342C343.602 159.155 351.721 162.562 362.448 162.562C369.697 162.562 375.568 161.402 380.062 159.083C384.556 156.763 388.76 153.357 392.674 148.863L394.849 150.82C390.355 158.793 384.339 165.027 376.8 169.521C369.407 174.015 360.491 176.262 350.053 176.262C339.761 176.262 330.627 174.087 322.654 169.738C314.681 165.244 308.447 158.865 303.953 150.602C299.459 142.339 297.212 132.481 297.212 121.028C297.212 109.141 299.821 99.0655 305.04 90.8022C310.259 82.394 316.928 76.0153 325.046 71.6662C333.309 67.3171 341.935 65.1426 350.923 65.1426ZM350.271 69.4917C346.067 69.4917 342.442 70.7964 339.398 73.4058C336.499 75.8703 334.179 80.3644 332.44 86.888C330.845 93.2667 329.975 102.327 329.83 114.07H367.015C368.465 98.2681 367.885 86.888 365.275 79.9295C362.666 72.9709 357.664 69.4917 350.271 69.4917Z" fill="#F2F2F2"/>
<path d="M389.74 173V170.825L395.176 168.868C398.075 167.709 400.322 166.331 401.917 164.737C403.512 162.997 404.816 160.605 405.831 157.561L450.627 29.0451H469.111L513.254 158.431C514.414 161.62 515.718 164.084 517.168 165.824C518.618 167.419 520.865 168.796 523.909 169.956L526.519 170.825V173H471.285V170.825L474.547 169.738C477.591 168.578 479.403 166.984 479.983 164.954C480.708 162.78 480.636 160.243 479.766 157.343L469.545 126.03H421.271L410.833 156.691C409.818 159.88 409.456 162.417 409.745 164.302C410.18 166.186 411.92 167.709 414.964 168.868L419.748 170.825V173H389.74ZM422.793 121.681H468.241L446.278 54.0524L422.793 121.681Z" fill="#457A39"/>
<path d="M527.256 173V170.825L530.518 169.956C533.417 169.086 535.374 167.781 536.389 166.041C537.549 164.302 538.129 162.055 538.129 159.3V91.2371C538.129 88.0478 537.549 85.7282 536.389 84.2785C535.374 82.6839 533.417 81.5966 530.518 81.0167L527.256 80.1469V77.9724L564.658 65.36L566.833 67.5345L568.79 86.2356V87.9753C570.819 83.9161 573.429 80.2194 576.618 76.8851C579.952 73.4058 583.577 70.5789 587.491 68.4044C591.55 66.2298 595.537 65.1425 599.451 65.1425C604.96 65.1425 609.164 66.6647 612.063 69.7091C614.963 72.7534 616.412 76.5951 616.412 81.2342C616.412 86.1631 614.963 90.0048 612.063 92.7593C609.309 95.3687 605.974 96.6735 602.06 96.6735C595.972 96.6735 590.608 93.6291 585.969 87.5404L585.534 87.1055C584.084 85.0759 582.417 83.9886 580.532 83.8436C578.648 83.5537 576.908 84.4235 575.313 86.4531C573.864 87.7578 572.631 89.3525 571.617 91.2371C570.747 92.9767 569.877 95.0063 569.007 97.3258V157.996C569.007 163.794 571.544 167.419 576.618 168.868L583.577 170.825V173H527.256Z" fill="#457A39"/>
<path d="M659.946 176.262C650.668 176.262 643.419 173.942 638.2 169.303C633.126 164.664 630.589 157.271 630.589 147.123V72.7534H615.585V70.5789L620.804 69.7091C625.298 68.6943 629.14 67.2446 632.329 65.36C635.663 63.4754 638.925 60.9384 642.114 57.7491L659.946 37.9607H662.12L661.468 68.4044H685.823V72.7534H661.25V151.037C661.25 156.111 662.338 159.953 664.512 162.562C666.832 165.172 669.731 166.476 673.21 166.476C676.255 166.476 678.937 165.752 681.256 164.302C683.576 162.707 685.895 160.605 688.215 157.996L690.389 160.17C687.49 165.099 683.503 169.013 678.429 171.913C673.355 174.812 667.194 176.262 659.946 176.262Z" fill="#457A39"/>
<path d="M744.622 65.1425C754.045 65.1425 762.091 67.0996 768.76 71.0138C775.428 74.783 780.502 80.0019 783.981 86.6705C787.606 93.1942 789.418 100.66 789.418 109.068C789.418 110.663 789.345 112.33 789.2 114.07C789.055 115.664 788.765 117.114 788.33 118.419H723.529C723.674 134.076 726.428 145.383 731.792 152.342C737.301 159.155 745.419 162.562 756.147 162.562C763.396 162.562 769.267 161.402 773.761 159.083C778.255 156.763 782.459 153.357 786.373 148.863L788.548 150.82C784.054 158.793 778.038 165.027 770.499 169.521C763.106 174.015 754.19 176.262 743.752 176.262C733.459 176.262 724.326 174.087 716.353 169.738C708.38 165.244 702.146 158.865 697.652 150.602C693.158 142.339 690.911 132.481 690.911 121.028C690.911 109.141 693.52 99.0655 698.739 90.8022C703.958 82.3939 710.627 76.0153 718.745 71.6662C727.008 67.3171 735.634 65.1425 744.622 65.1425ZM743.97 69.4916C739.766 69.4916 736.141 70.7964 733.097 73.4058C730.198 75.8703 727.878 80.3644 726.138 86.888C724.544 93.2667 723.674 102.327 723.529 114.07H760.714C762.163 98.2681 761.584 86.888 758.974 79.9295C756.365 72.9709 751.363 69.4916 743.97 69.4916Z" fill="#457A39"/>
<path fill-rule="evenodd" clip-rule="evenodd" d="M375.089 37.8798C371.481 44.4937 363.8 55.3165 352.842 55.3165C341.883 55.3165 333 46.433 333 35.4747C333 24.5164 342.62 18.6392 347.43 17.4367C349.379 16.9495 351.525 16.8571 353.789 16.7596C357.112 16.6164 360.689 16.4624 364.266 15.0317C370.278 12.6266 373.886 9.62026 379.297 0C379.444 1.17299 379.58 2.23871 379.705 3.21787C380.606 10.2693 380.933 12.8317 380.5 18.6392C380.271 21.7191 378.696 31.2658 375.089 37.8798ZM341.881 47.3445C341.255 40.2611 344.375 33.6406 347.774 32.0589C350.015 31.0159 352.789 31.2923 355.38 31.5504C357.701 31.7816 359.874 31.9981 361.387 31.2393C364.588 29.6333 366.858 23.4082 367.9 19.033C370.004 26.2992 367.058 33.9421 363.857 35.5481C361.888 36.5358 359.191 36.3358 356.634 36.1463C354.034 35.9535 351.579 35.7715 350.182 36.8606C346.488 39.7423 345.076 41.7343 341.881 47.3445Z" fill="#457A39"/>
</svg>
